HIERARCHY
ROOT newVegas:Hips
{
	OFFSET 0.000000 96.330055 9.825774
	CHANNELS 6 Xposition Yposition Zposition Xrotation Yrotation Zrotation
	JOINT newVegas:Pelvis
	{
		OFFSET 0.000000 0.000000 0.000000
		CHANNELS 3 Xrotation Yrotation Zrotation
		JOINT newVegas:LeftUpLeg
		{
			OFFSET 18.735231 -5.666687 -4.541196
			CHANNELS 3 Xrotation Yrotation Zrotation
			JOINT newVegas:LeftLeg
			{
				OFFSET 2.165257 -31.864662 0.493051
				CHANNELS 3 Xrotation Yrotation Zrotation
				JOINT newVegas:LeftFoot
				{
					OFFSET 2.207560 -31.861769 -4.336291
					CHANNELS 3 Xrotation Yrotation Zrotation
					JOINT newVegas:LeftToeBase
					{
						OFFSET 0.942982 -26.721954 15.023476
						CHANNELS 3 Xrotation Yrotation Zrotation
						End Site
						{
							OFFSET 0.000000 30.670130 0.000000
						}
					}
				}
				JOINT newVegas:Left_PantLeg
				{
					OFFSET 1.281483 -8.977982 -1.108870
					CHANNELS 3 Xrotation Yrotation Zrotation
					End Site
					{
						OFFSET 0.000000 20.683853 0.000000
					}
				}
			}
		}
		JOINT newVegas:RightUpLeg
		{
			OFFSET -18.735231 -5.666687 -4.541196
			CHANNELS 3 Xrotation Yrotation Zrotation
			JOINT newVegas:RightLeg
			{
				OFFSET -2.167511 -31.864510 0.493069
				CHANNELS 3 Xrotation Yrotation Zrotation
				JOINT newVegas:RightFoot
				{
					OFFSET -2.205305 -31.861921 -4.336310
					CHANNELS 3 Xrotation Yrotation Zrotation
					JOINT newVegas:RightToeBase
					{
						OFFSET -0.942982 -26.721954 15.023476
						CHANNELS 3 Xrotation Yrotation Zrotation
						End Site
						{
							OFFSET 0.000000 30.670130 0.000000
						}
					}
				}
				JOINT newVegas:Right_PantLeg
				{
					OFFSET -1.279257 -8.978161 -1.108887
					CHANNELS 3 Xrotation Yrotation Zrotation
					End Site
					{
						OFFSET 0.000000 20.683781 0.000000
					}
				}
			}
		}
	}
	JOINT newVegas:Spine
	{
		OFFSET 0.000000 10.200043 -0.299546
		CHANNELS 3 Xrotation Yrotation Zrotation
		JOINT newVegas:Spine1
		{
			OFFSET 0.000000 11.900047 -1.516603
			CHANNELS 3 Xrotation Yrotation Zrotation
			JOINT newVegas:Spine2
			{
				OFFSET 0.000000 13.600052 -2.842519
				CHANNELS 3 Xrotation Yrotation Zrotation
				JOINT newVegas:Neck
				{
					OFFSET 0.000000 9.624100 -2.890091
					CHANNELS 3 Xrotation Yrotation Zrotation
					JOINT newVegas:Head
					{
						OFFSET 0.000000 14.068771 -1.351861
						CHANNELS 3 Xrotation Yrotation Zrotation
						JOINT newVegas:Hair_Back
						{
							OFFSET 0.000000 3.231888 -17.524775
							CHANNELS 3 Xrotation Yrotation Zrotation
							End Site
							{
								OFFSET 0.000000 19.849899 0.000000
							}
						}
						JOINT newVegas:Hair_Front
						{
							OFFSET 0.000000 31.260452 4.573765
							CHANNELS 3 Xrotation Yrotation Zrotation
							JOINT newVegas:Hair_Front1
							{
								OFFSET -0.000000 2.284073 11.993284
								CHANNELS 3 Xrotation Yrotation Zrotation
								JOINT newVegas:Hair_Front2
								{
									OFFSET -0.000000 2.284073 11.993282
									CHANNELS 3 Xrotation Yrotation Zrotation
									End Site
									{
										OFFSET 0.000000 12.208847 0.000000
									}
								}
							}
						}
						JOINT newVegas:Jowel
						{
							OFFSET 0.000000 -7.458237 6.864121
							CHANNELS 3 Xrotation Yrotation Zrotation
							End Site
							{
								OFFSET 0.000000 19.849899 0.000000
							}
						}
					}
				}
				JOINT newVegas:LeftShoulder
				{
					OFFSET 15.263037 10.923431 -0.547705
					CHANNELS 3 Xrotation Yrotation Zrotation
					JOINT newVegas:LeftArm
					{
						OFFSET 25.438639 -2.830658 -13.032501
						CHANNELS 3 Xrotation Yrotation Zrotation
						JOINT newVegas:LeftForeArm
						{
							OFFSET 29.593842 0.000000 -4.673203
							CHANNELS 3 Xrotation Yrotation Zrotation
							JOINT newVegas:LeftHand
							{
								OFFSET 27.832886 0.000000 0.954267
								CHANNELS 3 Xrotation Yrotation Zrotation
								JOINT newVegas:LeftHandThumb1
								{
									OFFSET 4.767456 -2.676666 6.397403
									CHANNELS 3 Xrotation Yrotation Zrotation
									JOINT newVegas:LeftHandThumb2
									{
										OFFSET 6.625809 -0.223526 2.471421
										CHANNELS 3 Xrotation Yrotation Zrotation
										JOINT newVegas:LeftHandThumb3
										{
											OFFSET 6.481201 0.059357 1.536795
											CHANNELS 3 Xrotation Yrotation Zrotation
											End Site
											{
												OFFSET 0.000000 6.661179 0.000000
											}
										}
									}
								}
								JOINT newVegas:LeftHandIndex1
								{
									OFFSET 18.761932 0.178406 4.531118
									CHANNELS 3 Xrotation Yrotation Zrotation
									JOINT newVegas:LeftHandIndex2
									{
										OFFSET 3.171219 -0.350479 0.097670
										CHANNELS 3 Xrotation Yrotation Zrotation
										JOINT newVegas:LeftHandIndex3
										{
											OFFSET 3.807625 -0.034592 0.457391
											CHANNELS 3 Xrotation Yrotation Zrotation
											End Site
											{
												OFFSET 0.000000 3.835159 0.000000
											}
										}
									}
								}
								JOINT newVegas:LeftHandMiddle1
								{
									OFFSET 18.461426 0.243439 -0.695649
									CHANNELS 3 Xrotation Yrotation Zrotation
									JOINT newVegas:LeftHandMiddle2
									{
										OFFSET 3.308960 -0.304459 -0.112251
										CHANNELS 3 Xrotation Yrotation Zrotation
										JOINT newVegas:LeftHandMiddle3
										{
											OFFSET 4.584320 0.057678 -0.330443
											CHANNELS 3 Xrotation Yrotation Zrotation
											End Site
											{
												OFFSET 0.000000 4.596573 0.000000
											}
										}
									}
								}
								JOINT newVegas:LeftHandRing1
								{
									OFFSET 17.563904 -0.015564 -4.860666
									CHANNELS 3 Xrotation Yrotation Zrotation
									JOINT newVegas:LeftHandRing2
									{
										OFFSET 2.582436 -0.710159 -0.544994
										CHANNELS 3 Xrotation Yrotation Zrotation
										JOINT newVegas:LeftHandRing3
										{
											OFFSET 3.050346 0.119141 -0.884829
											CHANNELS 3 Xrotation Yrotation Zrotation
											End Site
											{
												OFFSET 0.000000 3.178314 0.000000
											}
										}
									}
								}
								JOINT newVegas:LeftHandPinky1
								{
									OFFSET 15.713013 -1.058273 -8.049927
									CHANNELS 3 Xrotation Yrotation Zrotation
									JOINT newVegas:LeftHandPinky2
									{
										OFFSET 2.262558 -0.308899 -1.109793
										CHANNELS 3 Xrotation Yrotation Zrotation
										JOINT newVegas:LeftHandPinky3
										{
											OFFSET 2.240669 -0.150864 -1.296448
											CHANNELS 3 Xrotation Yrotation Zrotation
											End Site
											{
												OFFSET 0.000000 2.593094 0.000000
											}
										}
									}
								}
							}
							JOINT newVegas:Left_Sleeve
							{
								OFFSET 0.247482 -0.649780 0.586459
								CHANNELS 3 Xrotation Yrotation Zrotation
								End Site
								{
									OFFSET 0.000000 15.991226 0.000000
								}
							}
							JOINT newVegas:Left_CapeC
							{
								OFFSET 15.944374 -8.608810 -6.393338
								CHANNELS 3 Xrotation Yrotation Zrotation
								JOINT newVegas:Left_CapeC1
								{
									OFFSET 0.000000 -8.688515 0.000000
									CHANNELS 3 Xrotation Yrotation Zrotation
									End Site
									{
										OFFSET 0.000000 8.688515 0.000000
									}
								}
							}
						}
						JOINT newVegas:Left_CapeB
						{
							OFFSET 24.694458 -8.608810 -11.066542
							CHANNELS 3 Xrotation Yrotation Zrotation
							JOINT newVegas:Left_CapeB1
							{
								OFFSET 0.000008 -8.688515 0.000000
								CHANNELS 3 Xrotation Yrotation Zrotation
								End Site
								{
									OFFSET 0.000000 8.688515 0.000000
								}
							}
						}
						JOINT newVegas:Left_CapeA
						{
							OFFSET 3.431450 -8.608810 -11.066542
							CHANNELS 3 Xrotation Yrotation Zrotation
							JOINT newVegas:Left_CapeA1
							{
								OFFSET 0.000000 -8.688515 0.000000
								CHANNELS 3 Xrotation Yrotation Zrotation
								End Site
								{
									OFFSET 0.000000 8.688515 0.000000
								}
							}
						}
					}
				}
				JOINT newVegas:RightShoulder
				{
					OFFSET -15.263037 10.923431 -0.547705
					CHANNELS 3 Xrotation Yrotation Zrotation
					JOINT newVegas:RightArm
					{
						OFFSET -25.438639 -2.830658 -13.032501
						CHANNELS 3 Xrotation Yrotation Zrotation
						JOINT newVegas:RightForeArm
						{
							OFFSET -29.593842 0.000000 -4.673203
							CHANNELS 3 Xrotation Yrotation Zrotation
							JOINT newVegas:RightHand
							{
								OFFSET -27.832886 0.000000 0.954267
								CHANNELS 3 Xrotation Yrotation Zrotation
								JOINT newVegas:RightHandThumb1
								{
									OFFSET -4.767456 -2.676666 6.397403
									CHANNELS 3 Xrotation Yrotation Zrotation
									JOINT newVegas:RightHandThumb2
									{
										OFFSET -6.625809 -0.223526 2.471421
										CHANNELS 3 Xrotation Yrotation Zrotation
										JOINT newVegas:RightHandThumb3
										{
											OFFSET -6.481201 0.059357 1.536795
											CHANNELS 3 Xrotation Yrotation Zrotation
											End Site
											{
												OFFSET 0.000000 6.661179 0.000000
											}
										}
									}
								}
								JOINT newVegas:RightHandIndex1
								{
									OFFSET -18.761932 0.178406 4.531118
									CHANNELS 3 Xrotation Yrotation Zrotation
									JOINT newVegas:RightHandIndex2
									{
										OFFSET -3.171219 -0.350479 0.097670
										CHANNELS 3 Xrotation Yrotation Zrotation
										JOINT newVegas:RightHandIndex3
										{
											OFFSET -3.807625 -0.034592 0.457391
											CHANNELS 3 Xrotation Yrotation Zrotation
											End Site
											{
												OFFSET 0.000000 3.835159 0.000000
											}
										}
									}
								}
								JOINT newVegas:RightHandMiddle1
								{
									OFFSET -18.461426 0.243439 -0.695648
									CHANNELS 3 Xrotation Yrotation Zrotation
									JOINT newVegas:RightHandMiddle2
									{
										OFFSET -3.308960 -0.304459 -0.112251
										CHANNELS 3 Xrotation Yrotation Zrotation
										JOINT newVegas:RightHandMiddle3
										{
											OFFSET -4.584320 0.057678 -0.330443
											CHANNELS 3 Xrotation Yrotation Zrotation
											End Site
											{
												OFFSET 0.000000 4.596573 0.000000
											}
										}
									}
								}
								JOINT newVegas:RightHandRing1
								{
									OFFSET -17.563904 -0.015564 -4.860666
									CHANNELS 3 Xrotation Yrotation Zrotation
									JOINT newVegas:RightHandRing2
									{
										OFFSET -2.582436 -0.710159 -0.544992
										CHANNELS 3 Xrotation Yrotation Zrotation
										JOINT newVegas:RightHandRing3
										{
											OFFSET -3.050346 0.119141 -0.884830
											CHANNELS 3 Xrotation Yrotation Zrotation
											End Site
											{
												OFFSET 0.000000 3.178329 0.000000
											}
										}
									}
								}
								JOINT newVegas:RightHandPinky1
								{
									OFFSET -15.713013 -1.058273 -8.049929
									CHANNELS 3 Xrotation Yrotation Zrotation
									JOINT newVegas:RightHandPinky2
									{
										OFFSET -2.262558 -0.308899 -1.109791
										CHANNELS 3 Xrotation Yrotation Zrotation
										JOINT newVegas:RightHandPinky3
										{
											OFFSET -2.240669 -0.150864 -1.296448
											CHANNELS 3 Xrotation Yrotation Zrotation
											End Site
											{
												OFFSET 0.000000 2.593094 0.000000
											}
										}
									}
								}
							}
							JOINT newVegas:Right_CapeC
							{
								OFFSET -15.944374 -8.608810 -6.393338
								CHANNELS 3 Xrotation Yrotation Zrotation
								JOINT newVegas:Right_CapeC1
								{
									OFFSET 0.000000 -8.688515 0.000000
									CHANNELS 3 Xrotation Yrotation Zrotation
									End Site
									{
										OFFSET 0.000000 8.688515 0.000000
									}
								}
							}
							JOINT newVegas:Right_Sleeve
							{
								OFFSET -0.247482 -0.649963 0.586505
								CHANNELS 3 Xrotation Yrotation Zrotation
								End Site
								{
									OFFSET 0.000000 15.991287 0.000000
								}
							}
						}
						JOINT newVegas:Right_CapeA
						{
							OFFSET -3.431450 -8.608810 -11.066542
							CHANNELS 3 Xrotation Yrotation Zrotation
							JOINT newVegas:Right_CapeA1
							{
								OFFSET 0.000000 -8.688515 0.000000
								CHANNELS 3 Xrotation Yrotation Zrotation
								End Site
								{
									OFFSET 0.000000 8.688515 0.000000
								}
							}
						}
						JOINT newVegas:Right_CapeB
						{
							OFFSET -24.694321 -8.608810 -11.066542
							CHANNELS 3 Xrotation Yrotation Zrotation
							JOINT newVegas:Right_CapeB1
							{
								OFFSET -0.000015 -8.688515 0.000002
								CHANNELS 3 Xrotation Yrotation Zrotation
								End Site
								{
									OFFSET 0.000000 8.688515 0.000000
								}
							}
						}
					}
				}
				JOINT newVegas:Left_Collar
				{
					OFFSET 18.625118 8.655487 8.828113
					CHANNELS 3 Xrotation Yrotation Zrotation
					JOINT newVegas:Left_Collar1
					{
						OFFSET 14.783401 10.540359 -1.259481
						CHANNELS 3 Xrotation Yrotation Zrotation
						End Site
						{
							OFFSET 0.000000 18.199844 0.000000
						}
					}
				}
				JOINT newVegas:Collar_Back
				{
					OFFSET 0.000000 15.630692 -20.132616
					CHANNELS 3 Xrotation Yrotation Zrotation
					End Site
					{
						OFFSET 0.000000 22.523010 0.000000
					}
				}
				JOINT newVegas:Left_Peck
				{
					OFFSET 17.239555 -5.132629 25.482586
					CHANNELS 3 Xrotation Yrotation Zrotation
					End Site
					{
						OFFSET 0.000000 22.523026 0.000000
					}
				}
				JOINT newVegas:Right_Peck
				{
					OFFSET -17.239599 -5.132195 25.482594
					CHANNELS 3 Xrotation Yrotation Zrotation
					End Site
					{
						OFFSET 0.000000 22.523018 0.000000
					}
				}
				JOINT newVegas:Right_Collar
				{
					OFFSET -18.625099 8.655807 8.828094
					CHANNELS 3 Xrotation Yrotation Zrotation
					JOINT newVegas:Right_Collar1
					{
						OFFSET -14.783405 10.539993 -1.259501
						CHANNELS 3 Xrotation Yrotation Zrotation
						End Site
						{
							OFFSET 0.000000 18.199646 0.000000
						}
					}
				}
			}
		}
		JOINT newVegas:Belly
		{
			OFFSET 0.000000 -6.540390 9.014252
			CHANNELS 3 Xrotation Yrotation Zrotation
			End Site
			{
				OFFSET 0.000000 11.566666 0.000000
			}
		}
	}
	JOINT newVegas:ElvisFacialAnim_Joint
	{
		OFFSET 1.000000 -95.330055 -8.825774
		CHANNELS 3 Xrotation Yrotation Zrotation
		End Site
		{
			OFFSET 0.000000 35.315800 0.000000
		}
	}
}
MOTION
Frames: 4
Frame Time: 0.016667
-3.973551 92.883652 5.171619 0.291843 -22.265600 -2.428021 -0.000000 0.000001 0.000000 -13.044290 0.561522 -9.251742 36.541857 13.393439 6.383808 -18.249391 5.622614 0.743796 0.000000 0.000000 0.000000 0.000000 -0.000001 0.000000 -7.201291 -16.450307 12.370906 24.665977 8.551512 -1.282121 -14.365107 3.425958 -17.094486 -0.000000 0.000001 -0.000000 0.000001 -0.000000 0.000000 -5.158438 25.498578 10.641592 3.997430 3.936053 -7.691241 4.476293 3.961409 -7.425023 1.189309 -1.263695 1.607957 1.189300 -1.263700 1.607967 -0.000000 0.000000 -0.000000 1.189304 -1.263696 1.607962 1.189378 -1.263694 1.607963 0.000000 0.000000 0.000000 -0.000000 0.000000 -0.000000 0.325190 0.835601 7.865652 14.955126 -5.043561 -26.300106 0.000817 -94.084982 0.000844 29.720250 -48.504086 32.187451 5.275405 -7.393708 -14.027527 -1.306526 10.759515 -4.149401 0.000001 0.000001 0.000000 1.816024 4.710894 -39.701666 6.254638 3.290413 -52.543535 0.000000 0.000000 0.000002 -0.706978 2.007216 -40.587402 -2.642364 0.768674 -52.556236 0.000000 -0.000001 0.000001 -6.405065 -5.869701 -30.878910 -13.310253 6.791217 -61.423925 0.000001 -0.000000 -0.000001 -13.927680 -13.065599 -39.773827 -22.266610 4.054005 -44.928581 0.000000 0.000003 0.000001 0.000001 0.000001 -0.000001 0.000001 0.000001 -0.000001 0.000001 0.000001 -0.000001 -0.000000 -0.000001 0.000001 -0.000000 -0.000001 -0.000000 -0.000000 -0.000001 0.000001 -0.000000 -0.000001 0.000001 0.758279 1.963741 2.804308 -31.561809 15.437845 69.876257 0.000237 101.187777 -0.000220 39.124758 -4.723062 41.828741 5.024341 8.717376 13.864771 -3.021113 -19.363518 5.027759 0.000000 -0.000002 -0.000001 0.311833 -4.224219 3.190951 2.243532 -5.029808 16.071372 0.000001 0.000000 -0.000001 -0.109288 -0.553814 4.223115 -1.173029 1.662011 16.201446 -0.000001 -0.000003 -0.000002 -0.011946 9.163543 -5.701390 -7.616441 1.783525 26.674293 -0.000000 0.000003 0.000001 -2.450674 23.391731 2.648796 -7.094369 2.523019 12.275923 0.000000 -0.000001 -0.000000 0.000003 0.000002 0.000001 0.000003 0.000002 0.000001 0.000003 0.000002 -0.000000 0.000001 -0.000000 -0.000002 0.000001 -0.000000 -0.000002 0.000001 -0.000000 -0.000002 0.000001 -0.000000 -0.000001 0.000000 0.000000 -0.000000 0.000000 0.000000 0.000000 0.000000 0.000000 -0.000000 0.000000 0.000000 -0.000000 0.000000 0.000000 -0.000000 0.000000 0.000000 -0.000000 0.000000 0.000000 0.000000 0.000000 0.000000 0.000000 -0.000000 0.000001 -0.000000 
-4.185375 92.850708 5.003379 0.976302 -23.661981 -1.203364 -0.000000 0.000000 -0.000000 -10.223000 0.935230 -9.429400 32.277640 12.829533 4.127724 -19.899575 5.992703 3.192520 -0.000000 0.000001 -0.000000 -0.000001 0.000001 -0.000000 -9.208866 -17.127143 12.738888 26.979522 7.483710 -2.790829 -14.925244 5.618886 -19.443120 -0.000000 0.000001 0.000000 0.000000 0.000001 -0.000003 -5.477235 25.978473 10.751432 4.220427 3.950581 -8.490480 4.749215 3.992889 -8.204203 1.169718 -1.196747 1.604233 1.169719 -1.196748 1.604233 0.000000 -0.000000 -0.000000 1.169648 -1.196756 1.604231 1.169790 -1.196740 1.604232 0.000001 0.000000 -0.000000 0.000000 -0.000000 -0.000000 0.327252 0.857188 7.499489 11.434498 -1.745389 -25.808607 0.001050 -92.432069 0.001090 29.602224 -48.698272 32.106677 5.259692 -7.221355 -14.119076 -1.306527 10.759514 -4.149400 0.000001 -0.000001 -0.000000 1.825684 4.710886 -39.920499 6.274867 3.272440 -52.765254 -0.000000 0.000001 0.000000 -0.707634 2.016827 -40.805404 -2.646254 0.785919 -52.777695 -0.000004 -0.000001 0.000000 -6.435514 -5.838454 -31.095881 -13.328030 6.852506 -61.634678 -0.000001 0.000001 -0.000000 -13.984579 -13.006301 -39.989262 -22.335227 4.141658 -45.116046 -0.000003 0.000001 -0.000002 0.000003 -0.000001 0.000000 0.000003 -0.000001 0.000000 0.000003 -0.000001 0.000000 -0.000000 -0.000000 -0.000001 -0.000000 -0.000000 -0.000003 -0.000000 -0.000000 -0.000001 -0.000000 -0.000000 -0.000001 0.652811 1.559986 2.089261 -33.160647 19.905678 71.799795 0.000166 101.114482 -0.000150 39.180946 -3.402512 43.594837 5.055402 10.194071 13.783043 -2.490375 -17.368053 5.016049 0.000001 -0.000000 -0.000002 0.311833 -4.224215 3.190952 2.243532 -5.029809 16.071369 0.000000 0.000000 -0.000003 -0.109288 -0.553813 4.223115 -1.173029 1.662008 16.201449 0.000000 -0.000001 -0.000001 -0.011946 9.163550 -5.701389 -7.616437 1.783526 26.674293 -0.000001 0.000003 -0.000000 -2.450672 23.391733 2.648797 -7.094366 2.523019 12.275919 -0.000002 0.000000 -0.000000 0.000001 0.000001 0.000001 0.000001 0.000001 0.000001 0.000001 0.000001 -0.000001 0.000000 -0.000001 -0.000003 0.000000 -0.000001 -0.000003 0.000000 -0.000001 -0.000003 0.000000 -0.000001 -0.000002 0.000000 0.000000 -0.000000 0.000000 0.000000 0.000000 0.000000 0.000000 -0.000000 0.000000 0.000000 -0.000000 0.000000 0.000000 -0.000000 0.000000 0.000000 -0.000000 0.000000 0.000000 0.000000 -0.000000 0.000000 0.000000 -0.000000 0.000000 -0.000000 
-4.298564 92.818130 4.793334 1.693059 -24.598612 -0.057851 0.000000 0.000001 -0.000000 -7.848427 1.169273 -9.718642 28.003706 12.372242 2.369116 -20.691078 5.943211 5.281468 -0.000000 0.000000 0.000000 0.000002 0.000001 -0.000000 -15.848556 -17.173677 10.771282 33.885053 6.739184 -4.127306 -12.690111 5.985797 -16.737435 0.000000 0.000000 -0.000000 0.000000 -0.000002 -0.000001 -5.849769 26.008414 11.032298 4.475672 3.888727 -9.274568 5.047281 3.947508 -8.970704 1.136635 -1.120266 1.584975 1.136621 -1.120276 1.584981 0.000001 -0.000001 -0.000000 1.136425 -1.120265 1.584963 1.136703 -1.120245 1.584965 -0.000000 -0.000000 0.000000 0.000001 -0.000001 -0.000000 0.367762 0.793787 6.904555 7.251228 1.203617 -25.468015 -0.001352 -90.694312 -0.001502 29.611127 -48.898899 32.077881 5.246627 -7.074453 -14.197443 -1.306526 10.759517 -4.149400 0.000000 0.000003 -0.000000 1.827282 4.710889 -39.956839 6.278063 3.269593 -52.800381 0.000000 -0.000000 -0.000001 -0.707743 2.018440 -40.841611 -2.646855 0.788639 -52.812764 -0.000000 0.000001 -0.000002 -6.440550 -5.833233 -31.131910 -13.330829 6.862212 -61.668057 0.000002 -0.000000 0.000001 -13.994014 -12.996441 -40.025025 -22.346079 4.155572 -45.145734 0.000001 -0.000002 0.000000 0.000001 -0.000000 -0.000001 0.000001 -0.000000 -0.000001 0.000001 -0.000000 -0.000001 0.000000 0.000000 0.000001 0.000000 0.000000 0.000001 0.000000 0.000000 0.000001 0.000000 0.000000 0.000001 0.538049 0.995600 1.420873 -34.553271 24.555090 73.165150 0.000158 101.013484 -0.000147 38.904891 -2.284791 44.631499 5.085112 11.514122 13.708936 -2.039812 -15.659144 4.990873 0.000003 0.000000 0.000001 0.311834 -4.224219 3.190951 2.243533 -5.029815 16.071370 -0.000000 0.000000 -0.000003 -0.109289 -0.553817 4.223114 -1.173029 1.662009 16.201451 0.000001 -0.000000 -0.000002 -0.011944 9.163547 -5.701390 -7.616440 1.783528 26.674293 0.000002 -0.000001 0.000000 -2.450671 23.391733 2.648795 -7.094368 2.523020 12.275922 0.000002 0.000000 0.000000 -0.000003 -0.000000 -0.000001 -0.000003 -0.000000 -0.000001 -0.000003 -0.000000 -0.000003 0.000001 -0.000002 -0.000002 0.000001 -0.000002 -0.000002 0.000001 -0.000002 -0.000002 0.000001 -0.000002 -0.000001 -0.000000 0.000001 0.000001 -0.000000 0.000001 0.000001 -0.000000 0.000001 0.000001 -0.000000 0.000001 0.000001 -0.000000 0.000001 0.000001 -0.000000 0.000001 0.000001 -0.000000 0.000001 0.000001 -0.000000 -0.000000 -0.000000 0.000000 0.000001 -0.000000 
-4.310037 92.688850 4.573251 2.315708 -25.069525 1.069035 -0.000000 0.000002 0.000000 -6.092691 1.180964 -10.206030 24.422200 12.040880 1.113951 -20.947389 5.730490 6.743318 0.000000 -0.000001 -0.000000 0.000001 0.000000 -0.000000 -22.987606 -16.259952 8.391782 40.121074 6.175442 -4.893718 -8.236674 5.817052 -13.024004 0.000000 -0.000001 0.000000 0.000000 -0.000002 -0.000000 -6.015844 25.679040 11.319218 4.668290 3.770796 -10.047023 5.276399 3.841544 -9.734969 1.109232 -1.044186 1.560185 1.109282 -1.044178 1.560180 -0.000000 0.000000 -0.000000 1.109452 -1.044197 1.560200 1.109323 -1.044206 1.560198 0.000000 0.000000 0.000000 -0.000000 0.000000 -0.000000 0.452092 0.628425 6.086878 2.534722 3.724780 -25.284028 0.006086 -88.949472 0.006010 29.755849 -49.097305 32.136224 5.236828 -6.967612 -14.257994 -1.306527 10.759510 -4.149400 0.000000 0.000001 -0.000000 1.818333 4.710894 -39.754092 6.259334 3.286278 -52.594946 -0.000000 -0.000000 -0.000000 -0.707140 2.009515 -40.639626 -2.643269 0.772679 -52.607582 -0.000004 0.000000 0.000001 -6.412369 -5.862228 -30.930894 -13.314391 6.805432 -61.472775 0.000002 -0.000001 0.000002 -13.941334 -13.051410 -39.825447 -22.282553 4.074288 -44.972028 0.000000 -0.000000 0.000001 -0.000001 -0.000000 0.000000 -0.000001 -0.000000 0.000000 -0.000001 -0.000000 0.000000 -0.000000 -0.000001 -0.000000 -0.000000 -0.000001 -0.000000 -0.000000 -0.000001 -0.000000 -0.000000 -0.000001 -0.000000 0.421122 0.305505 0.829006 -35.351936 29.228995 73.735471 -0.000003 101.046877 -0.000009 38.508419 -1.585867 44.777371 5.114709 12.752317 13.638448 -1.650860 -14.175446 4.957924 0.000002 -0.000002 -0.000001 0.311834 -4.224218 3.190951 2.243534 -5.029813 16.071367 -0.000000 0.000001 0.000000 -0.109287 -0.553815 4.223112 -1.173031 1.662010 16.201446 0.000000 0.000003 -0.000002 -0.011946 9.163546 -5.701390 -7.616441 1.783524 26.674301 0.000001 -0.000001 0.000003 -2.450673 23.391731 2.648797 -7.094366 2.523019 12.275925 -0.000001 -0.000001 0.000001 -0.000001 0.000001 0.000003 -0.000001 0.000001 0.000003 -0.000001 0.000001 0.000002 -0.000002 -0.000002 0.000003 -0.000002 -0.000002 0.000003 -0.000002 -0.000002 0.000003 -0.000002 -0.000002 0.000003 -0.000000 -0.000001 0.000000 -0.000000 -0.000000 0.000001 -0.000000 -0.000001 0.000000 -0.000000 -0.000001 0.000000 -0.000000 -0.000001 0.000000 -0.000000 -0.000001 0.000000 -0.000000 -0.000000 0.000001 -0.000000 0.000000 0.000000 -0.000000 0.000002 -0.000000 
